<svg width="114" height="17" viewBox="0 0 114 17" fill="none" xmlns="http://www.w3.org/2000/svg">
<rect width="114" height="17" fill="white"/>
<path d="M9 0L11.1 6.5H18L12.4 10.5L14.6 17L9 13L3.4 17L5.6 10.5L0 6.5H6.9L9 0Z" fill="#83B3D3"/>
<path d="M9 0L11.1 6.5H18L12.4 10.5L14.6 17L9 13L3.4 17L5.6 10.5L0 6.5H6.9L9 0Z" fill="#83B3D3"/>
<path d="M33 0L35.1 6.5H42L36.4 10.5L38.6 17L33 13L27.4 17L29.6 10.5L24 6.5H30.9L33 0Z" fill="#83B3D3"/>
<path d="M105 0L107.1 6.5H114L108.4 10.5L110.6 17L105 13L99.4 17L101.6 10.5L96 6.5H102.9L105 0Z" fill="#83B3D3"/>
<path d="M81 0L83.1 6.5H90L84.4 10.5L86.6 17L81 13L75.4 17L77.6 10.5L72 6.5H78.9L81 0Z" fill="#83B3D3"/>
<path d="M57 0L59.1 6.5H66L60.4 10.5L62.6 17L57 13L51.4 17L53.6 10.5L48 6.5H54.9L57 0Z" fill="#83B3D3"/>
</svg>
